<?xml version="1.0" encoding="utf-8"?>
<!-- Generator: Adobe Illustrator 23.0.3, SVG Export Plug-In . SVG Version: 6.00 Build 0)  -->
<svg version="1.1" id="Layer_1" xmlns="http://www.w3.org/2000/svg" xmlns:xlink="http://www.w3.org/1999/xlink" x="0px" y="0px"
	 viewBox="0 0 24 24" style="enable-background:new 0 0 24 24;" xml:space="preserve">
<style type="text/css">
	.st0{fill-rule:evenodd;clip-rule:evenodd;fill:#333333;}
</style>
<path class="st0" d="M12,0C5.4,0,0,5.4,0,12s5.4,12,12,12s12-5.4,12-12S18.6,0,12,0z M19,17.6v-0.2l-1.1-1.1
	c-0.1-0.1-0.1-0.2-0.1-0.3V8.1c0-0.1,0-0.2,0.1-0.3L19,6.7V6.4h-3.9l-2.8,6.9L9.2,6.4h-4v0.2l1.3,1.6c0.1,0.1,0.2,0.3,0.2,0.5v6.2
	c0,0.2,0,0.5-0.2,0.6L5,17.3v0.2h4.2v-0.2l-1.5-1.8c-0.2-0.2-0.2-0.4-0.2-0.6V9.5l3.7,8h0.4l3.1-8v6.4c0,0.2,0,0.2-0.1,0.3l-1.1,1.1
	v0.2C13.5,17.6,19,17.6,19,17.6z"/>
</svg>
